<?xml version="1.0" standalone="yes"?>
<svg xmlns="http://www.w3.org/2000/svg" width="2667" height="2667">
<path style="fill:#ffffff; stroke:none;" d="M0 0L0 2667L2667 2667L2667 0L0 0z"/>
<path style="fill:#98e8f3; stroke:none;" d="M1181 311L1182 312L1181 311z"/>
<path style="fill:#5d87a7; stroke:none;" d="M1182.67 311.333L1183.33 311.667L1182.67 311.333z"/>
<path style="fill:#175583; stroke:none;" d="M1220 372C1214.83 389.485 1219 413.739 1219 432L1219 560L1402 560L1402 394L1398 394C1405.59 391.183 1411.15 385.193 1419 382.774C1438.52 376.757 1460.8 376.295 1481 374.911C1527.19 371.745 1574.25 372.172 1620 380.424C1638.87 383.827 1657.58 388.714 1676 394C1685.51 396.73 1696.1 401.826 1706 402.391C1719.86 403.18 1735.42 383.553 1745 375.05C1748.43 372.007 1753.79 368.855 1755.95 364.715C1758.06 360.678 1754.28 358.263 1751 357.019C1742.75 353.893 1734.36 351.146 1726 348.333C1690.87 336.508 1655.64 325.558 1619 319.414C1563.25 310.064 1503.36 308.231 1447 312.089C1396.77 315.529 1346.4 323.919 1296 324C1269.31 324.043 1244.14 321.113 1218 315.801C1205.78 313.319 1188.93 307.403 1177.04 313.569C1168.05 318.236 1164.46 339.69 1164.04 349C1163.87 352.754 1163.35 357.537 1166.32 360.362C1170.06 363.917 1176.19 364.923 1181 366.126C1193.52 369.256 1207.07 371.964 1220 372z"/>
<path style="fill:#5d87a7; stroke:none;" d="M1193 311L1193 312L1197 312L1193 311z"/>
<path style="fill:#98e8f3; stroke:none;" d="M1197.67 311.333L1198.33 311.667L1197.67 311.333M1449 311L1449 312L1454 312L1449 311z"/>
<path style="fill:#5d87a7; stroke:none;" d="M1454 311L1454 312L1464 312L1454 311M1511 311L1511 312L1530 312L1511 311z"/>
<path style="fill:#98e8f3; stroke:none;" d="M1530 311L1530 312L1540 312L1530 311z"/>
<path style="fill:#5d87a7; stroke:none;" d="M1178.67 312.333L1179.33 312.667L1178.67 312.333M1201.67 312.333L1202.33 312.667L1201.67 312.333z"/>
<path style="fill:#98e8f3; stroke:none;" d="M1203 312L1204 313L1203 312M1435 312L1435 313L1438 313L1435 312z"/>
<path style="fill:#5d87a7; stroke:none;" d="M1438 312L1438 313L1444 313L1438 312M1547 312L1547 313L1557 313L1547 312z"/>
<path style="fill:#98e8f3; stroke:none;" d="M1557 312L1557 313L1561 313L1557 312z"/>
<path style="fill:#5d87a7; stroke:none;" d="M1176 313L1177 314L1176 313M1206.67 313.333L1207.33 313.667L1206.67 313.333z"/>
<path style="fill:#98e8f3; stroke:none;" d="M1208 313L1209 314L1208 313M1423 313L1423 314L1426 314L1423 313z"/>
<path style="fill:#5d87a7; stroke:none;" d="M1426 313L1426 314L1431 314L1426 313M1566 313L1566 314L1572 314L1566 313z"/>
<path style="fill:#98e8f3; stroke:none;" d="M1572 313L1572 314L1576 314L1572 313M1174 314L1175 315L1174 314z"/>
<path style="fill:#5d87a7; stroke:none;" d="M1211.67 314.333L1212.33 314.667L1211.67 314.333z"/>
<path style="fill:#98e8f3; stroke:none;" d="M1213 314L1214 315L1213 314M1411 314L1411 315L1415 315L1411 314z"/>
<path style="fill:#5d87a7; stroke:none;" d="M1415 314L1415 315L1419 315L1415 314M1579 314L1579 315L1584 315L1579 314z"/>
<path style="fill:#98e8f3; stroke:none;" d="M1584 314L1584 315L1587 315L1584 314M1173 315L1174 316L1173 315z"/>
<path style="fill:#5d87a7; stroke:none;" d="M1216.67 315.333L1217.33 315.667L1216.67 315.333z"/>
<path style="fill:#98e8f3; stroke:none;" d="M1218 315L1219 316L1218 315M1401 315L1401 316L1404 316L1401 315z"/>
<path style="fill:#5d87a7; stroke:none;" d="M1404 315L1404 316L1408 316L1404 315M1590 315L1590 316L1594 316L1590 315z"/>
<path style="fill:#98e8f3; stroke:none;" d="M1594.67 315.333L1595.33 315.667L1594.67 315.333z"/>
<path style="fill:#5d87a7; stroke:none;" d="M1221.67 316.333L1222.33 316.667L1221.67 316.333z"/>
<path style="fill:#98e8f3; stroke:none;" d="M1223 316L1224 317L1223 316M1391 316L1391 317L1394 317L1391 316z"/>
<path style="fill:#5d87a7; stroke:none;" d="M1394 316L1394 317L1398 317L1394 316M1599 316L1599 317L1602 317L1599 316z"/>
<path style="fill:#98e8f3; stroke:none;" d="M1602.67 316.333L1603.33 316.667L1602.67 316.333z"/>
<path style="fill:#5d87a7; stroke:none;" d="M1172 317L1173 318L1172 317M1225.67 317.333L1226.33 317.667L1225.67 317.333z"/>
<path style="fill:#98e8f3; stroke:none;" d="M1227.67 317.333L1228.33 317.667L1227.67 317.333M1380 317L1380 318L1383 318L1380 317z"/>
<path style="fill:#5d87a7; stroke:none;" d="M1383 317L1383 318L1387 318L1383 317M1606 317L1606 318L1609 318L1606 317z"/>
<path style="fill:#98e8f3; stroke:none;" d="M1609.67 317.333L1610.33 317.667L1609.67 317.333M1171 318L1172 319L1171 318z"/>
<path style="fill:#5d87a7; stroke:none;" d="M1230.67 318.333L1231.33 318.667L1230.67 318.333z"/>
<path style="fill:#98e8f3; stroke:none;" d="M1232.67 318.333L1233.33 318.667L1232.67 318.333M1369 318L1369 319L1372 319L1369 318z"/>
<path style="fill:#5d87a7; stroke:none;" d="M1372 318L1372 319L1377 319L1372 318M1613 318L1613 319L1616 319L1613 318z"/>
<path style="fill:#98e8f3; stroke:none;" d="M1616.67 318.333L1617.33 318.667L1616.67 318.333z"/>
<path style="fill:#5d87a7; stroke:none;" d="M1171 319L1172 320L1171 319M1236.67 319.333L1237.33 319.667L1236.67 319.333z"/>
<path style="fill:#98e8f3; stroke:none;" d="M1238 319L1239 320L1238 319M1358 319L1358 320L1362 320L1358 319z"/>
<path style="fill:#5d87a7; stroke:none;" d="M1362 319L1362 320L1366 320L1362 319M1619 319L1619 320L1622 320L1619 319z"/>
<path style="fill:#98e8f3; stroke:none;" d="M1622 319L1623 320L1622 319M1170 320L1171 321L1170 320z"/>
<path style="fill:#5d87a7; stroke:none;" d="M1241 320L1241 321L1244 321L1241 320z"/>
<path style="fill:#98e8f3; stroke:none;" d="M1244.67 320.333L1245.33 320.667L1244.67 320.333M1346 320L1346 321L1350 321L1346 320z"/>
<path style="fill:#5d87a7; stroke:none;" d="M1350 320L1350 321L1355 321L1350 320M1625.67 320.333L1626.33 320.667L1625.67 320.333z"/>
<path style="fill:#98e8f3; stroke:none;" d="M1627.67 320.333L1628.33 320.667L1627.67 320.333z"/>
<path style="fill:#5d87a7; stroke:none;" d="M1170 321L1171 322L1170 321M1248 321L1248 322L1251 322L1248 321z"/>
<path style="fill:#98e8f3; stroke:none;" d="M1251.67 321.333L1252.33 321.667L1251.67 321.333M1332 321L1332 322L1336 322L1332 321z"/>
<path style="fill:#5d87a7; stroke:none;" d="M1336 321L1336 322L1342 322L1336 321M1631.67 321.333L1632.33 321.667L1631.67 321.333z"/>
<path style="fill:#98e8f3; stroke:none;" d="M1633 321L1634 322L1633 321z"/>
<path style="fill:#5d87a7; stroke:none;" d="M1256 322L1256 323L1260 323L1256 322z"/>
<path style="fill:#98e8f3; stroke:none;" d="M1260 322L1260 323L1264 323L1260 322M1313 322L1313 323L1320 323L1313 322z"/>
<path style="fill:#5d87a7; stroke:none;" d="M1320 322L1320 323L1327 323L1320 322M1635.67 322.333L1636.33 322.667L1635.67 322.333z"/>
<path style="fill:#98e8f3; stroke:none;" d="M1637.67 322.333L1638.33 322.667L1637.67 322.333M1169 323L1170 324L1169 323z"/>
<path style="fill:#5d87a7; stroke:none;" d="M1269 323L1269 324L1305 324C1295.44 319.989 1279.39 323 1269 323M1640.67 323.333L1641.33 323.667L1640.67 323.333z"/>
<path style="fill:#98e8f3; stroke:none;" d="M1642 323L1643 324L1642 323z"/>
<path style="fill:#5d87a7; stroke:none;" d="M1169.33 324.667L1169.67 325.333L1169.33 324.667M1645.67 324.333L1646.33 324.667L1645.67 324.333z"/>
<path style="fill:#98e8f3; stroke:none;" d="M1647 324L1648 325L1647 324z"/>
<path style="fill:#5d87a7; stroke:none;" d="M1649.67 325.333L1650.33 325.667L1649.67 325.333z"/>
<path style="fill:#98e8f3; stroke:none;" d="M1651 325L1652 326L1651 325z"/>
<path style="fill:#5d87a7; stroke:none;" d="M1653.67 326.333L1654.33 326.667L1653.67 326.333z"/>
<path style="fill:#98e8f3; stroke:none;" d="M1655 326L1656 327L1655 326M1168 327L1169 328L1168 327z"/>
<path style="fill:#5d87a7; stroke:none;" d="M1657.67 327.333L1658.33 327.667L1657.67 327.333z"/>
<path style="fill:#98e8f3; stroke:none;" d="M1659 327L1660 328L1659 327z"/>
<path style="fill:#5d87a7; stroke:none;" d="M1168 328L1169 329L1168 328M1661.67 328.333L1662.33 328.667L1661.67 328.333z"/>
<path style="fill:#98e8f3; stroke:none;" d="M1663 328L1664 329L1663 328z"/>
<path style="fill:#5d87a7; stroke:none;" d="M1665.67 329.333L1666.33 329.667L1665.67 329.333z"/>
<path style="fill:#98e8f3; stroke:none;" d="M1667 329L1668 330L1667 329z"/>
<path style="fill:#5d87a7; stroke:none;" d="M1669 330L1670 331L1669 330z"/>
<path style="fill:#98e8f3; stroke:none;" d="M1670 330L1671 331L1670 330M1167 331L1168 332L1167 331z"/>
<path style="fill:#5d87a7; stroke:none;" d="M1672.67 331.333L1673.33 331.667L1672.67 331.333z"/>
<path style="fill:#98e8f3; stroke:none;" d="M1674 331L1675 332L1674 331z"/>
<path style="fill:#5d87a7; stroke:none;" d="M1167 332L1168 333L1167 332M1676 332L1677 333L1676 332z"/>
<path style="fill:#98e8f3; stroke:none;" d="M1677 332L1678 333L1677 332z"/>
<path style="fill:#5d87a7; stroke:none;" d="M1680 333L1681 334L1680 333z"/>
<path style="fill:#98e8f3; stroke:none;" d="M1681 333L1682 334L1681 333M1166 334L1167 335L1166 334z"/>
<path style="fill:#5d87a7; stroke:none;" d="M1683 334L1684 335L1683 334z"/>
<path style="fill:#98e8f3; stroke:none;" d="M1684 334L1685 335L1684 334z"/>
<path style="fill:#5d87a7; stroke:none;" d="M1166.33 335.667L1166.67 336.333L1166.33 335.667M1686.67 335.333L1687.33 335.667L1686.67 335.333M1690 336L1691 337L1690 336z"/>
<path style="fill:#98e8f3; stroke:none;" d="M1691 336L1692 337L1691 336z"/>
<path style="fill:#5d87a7; stroke:none;" d="M1693 337L1694 338L1693 337z"/>
<path style="fill:#98e8f3; stroke:none;" d="M1694 337L1695 338L1694 337M1165 338L1166 339L1165 338z"/>
<path style="fill:#5d87a7; stroke:none;" d="M1696 338L1697 339L1696 338z"/>
<path style="fill:#98e8f3; stroke:none;" d="M1697 338L1698 339L1697 338z"/>
<path style="fill:#5d87a7; stroke:none;" d="M1165.33 339.667L1165.67 340.333L1165.33 339.667M1699 339L1700 340L1699 339z"/>
<path style="fill:#98e8f3; stroke:none;" d="M1700 339L1701 340L1700 339z"/>
<path style="fill:#5d87a7; stroke:none;" d="M1702.67 340.333L1703.33 340.667L1702.67 340.333M1705.67 341.333L1706.33 341.667L1705.67 341.333z"/>
<path style="fill:#98e8f3; stroke:none;" d="M1164 342L1165 343L1164 342z"/>
<path style="fill:#5d87a7; stroke:none;" d="M1708.67 342.333L1709.33 342.667L1708.67 342.333z"/>
<path style="fill:#98e8f3; stroke:none;" d="M1710 342L1711 343L1710 342z"/>
<path style="fill:#5d87a7; stroke:none;" d="M1164.33 343.667L1164.67 344.333L1164.33 343.667M1711.67 343.333L1712.33 343.667L1711.67 343.333z"/>
<path style="fill:#98e8f3; stroke:none;" d="M1713 343L1714 344L1713 343z"/>
<path style="fill:#5d87a7; stroke:none;" d="M1715 344L1716 345L1715 344z"/>
<path style="fill:#98e8f3; stroke:none;" d="M1716 344L1717 345L1716 344z"/>
<path style="fill:#5d87a7; stroke:none;" d="M1718 345L1719 346L1718 345M1720.67 346.333L1721.33 346.667L1720.67 346.333z"/>
<path style="fill:#98e8f3; stroke:none;" d="M1163.33 347.667L1163.67 348.333L1163.33 347.667z"/>
<path style="fill:#5d87a7; stroke:none;" d="M1723.67 347.333L1724.33 347.667L1723.67 347.333M1726 348L1727 349L1726 348z"/>
<path style="fill:#98e8f3; stroke:none;" d="M1727 348L1728 349L1727 348z"/>
<path style="fill:#5d87a7; stroke:none;" d="M1163 349L1163 357L1164 357L1163 349M1729 349L1730 350L1729 349z"/>
<path style="fill:#98e8f3; stroke:none;" d="M1730 349L1731 350L1730 349z"/>
<path style="fill:#5d87a7; stroke:none;" d="M1732 350L1733 351L1732 350z"/>
<path style="fill:#98e8f3; stroke:none;" d="M1733 350L1734 351L1733 350z"/>
<path style="fill:#5d87a7; stroke:none;" d="M1735 351L1736 352L1735 351z"/>
<path style="fill:#98e8f3; stroke:none;" d="M1736 351L1737 352L1736 351z"/>
<path style="fill:#5d87a7; stroke:none;" d="M1738 352L1739 353L1738 352z"/>
<path style="fill:#98e8f3; stroke:none;" d="M1739 352L1740 353L1739 352z"/>
<path style="fill:#5d87a7; stroke:none;" d="M1741 353L1742 354L1741 353M1743.67 354.333L1744.33 354.667L1743.67 354.333M1746 355L1747 356L1746 355z"/>
<path style="fill:#98e8f3; stroke:none;" d="M1747 355L1748 356L1747 355z"/>
<path style="fill:#5d87a7; stroke:none;" d="M1749 356L1750 357L1749 356z"/>
<path style="fill:#98e8f3; stroke:none;" d="M1750 356L1751 357L1750 356M1163 357L1164 358L1163 357z"/>
<path style="fill:#5d87a7; stroke:none;" d="M1752 357L1753 358L1752 357z"/>
<path style="fill:#98e8f3; stroke:none;" d="M1753 357L1754 358L1753 357z"/>
<path style="fill:#5d87a7; stroke:none;" d="M1755 358L1756 359L1755 358z"/>
<path style="fill:#98e8f3; stroke:none;" d="M1164 359L1165 360L1164 359z"/>
<path style="fill:#5d87a7; stroke:none;" d="M1756 359L1757 360L1756 359z"/>
<path style="fill:#98e8f3; stroke:none;" d="M1165 360L1166 361L1165 360z"/>
<path style="fill:#5d87a7; stroke:none;" d="M1757 360L1757 364L1758 364L1757 360M1167 361L1168 362L1167 361z"/>
<path style="fill:#98e8f3; stroke:none;" d="M1168 362L1169 363L1168 362z"/>
<path style="fill:#5d87a7; stroke:none;" d="M1169 362L1170 363L1169 362M1171 363L1172 364L1171 363z"/>
<path style="fill:#98e8f3; stroke:none;" d="M1173 364L1174 365L1173 364z"/>
<path style="fill:#5d87a7; stroke:none;" d="M1174 364L1175 365L1174 364z"/>
<path style="fill:#98e8f3; stroke:none;" d="M1176 365L1177 366L1176 365z"/>
<path style="fill:#5d87a7; stroke:none;" d="M1177.67 365.333L1178.33 365.667L1177.67 365.333z"/>
<path style="fill:#98e8f3; stroke:none;" d="M1180 366L1181 367L1180 366z"/>
<path style="fill:#5d87a7; stroke:none;" d="M1181.67 366.333L1182.33 366.667L1181.67 366.333M1754 366L1755 367L1754 366z"/>
<path style="fill:#98e8f3; stroke:none;" d="M1184 367L1185 368L1184 367z"/>
<path style="fill:#5d87a7; stroke:none;" d="M1185.67 367.333L1186.33 367.667L1185.67 367.333M1753 367L1754 368L1753 367z"/>
<path style="fill:#98e8f3; stroke:none;" d="M1189 368L1190 369L1189 368z"/>
<path style="fill:#5d87a7; stroke:none;" d="M1190.67 368.333L1191.33 368.667L1190.67 368.333M1752 368L1753 369L1752 368z"/>
<path style="fill:#98e8f3; stroke:none;" d="M1194.67 369.333L1195.33 369.667L1194.67 369.333z"/>
<path style="fill:#5d87a7; stroke:none;" d="M1196.67 369.333L1197.33 369.667L1196.67 369.333z"/>
<path style="fill:#98e8f3; stroke:none;" d="M1751 369L1752 370L1751 369M1200.67 370.333L1201.33 370.667L1200.67 370.333z"/>
<path style="fill:#5d87a7; stroke:none;" d="M1202 370L1202 371L1205 371L1202 370z"/>
<path style="fill:#98e8f3; stroke:none;" d="M1750 370L1751 371L1750 370M1207.67 371.333L1208.33 371.667L1207.67 371.333z"/>
<path style="fill:#5d87a7; stroke:none;" d="M1209 371L1209 372L1212 372L1209 371z"/>
<path style="fill:#98e8f3; stroke:none;" d="M1749 371L1750 372L1749 371M1215.67 372.333L1216.33 372.667L1215.67 372.333z"/>
<path style="fill:#5d87a7; stroke:none;" d="M1217 372C1221.52 391.003 1218 414.473 1218 434L1218 560L1176 560L1176 561L1446 561L1446 560L1403 560L1403 393L1398 393L1398 394L1402 394L1402 560L1219 560L1219 434C1219 414.472 1215.48 391.003 1220 372L1217 372M1747 372L1748 373L1747 372M1224 373L1224 374L1229 374L1224 373M1505 373L1505 374L1526 374L1505 373z"/>
<path style="fill:#98e8f3; stroke:none;" d="M1526.67 373.333L1527.33 373.667L1526.67 373.333z"/>
<path style="fill:#5d87a7; stroke:none;" d="M1528 373L1528 374L1549 374L1528 373M1746 373L1747 374L1746 373M1233 374L1233 375L1238 375L1233 374M1484 374L1484 375L1491 375L1484 374z"/>
<path style="fill:#98e8f3; stroke:none;" d="M1491 374L1491 375L1496 375L1491 374M1558 374L1558 375L1563 375L1558 374z"/>
<path style="fill:#5d87a7; stroke:none;" d="M1563 374L1563 375L1569 375L1563 374M1745 374L1746 375L1745 374M1242 375L1242 376L1246 376L1242 375M1470 375L1470 376L1475 376L1470 375z"/>
<path style="fill:#98e8f3; stroke:none;" d="M1475 375L1475 376L1479 376L1475 375M1574 375L1574 376L1578 376L1574 375z"/>
<path style="fill:#5d87a7; stroke:none;" d="M1578 375L1578 376L1582 376L1578 375M1744 375L1745 376L1744 375M1250 376L1250 377L1255 377L1250 376M1459 376L1459 377L1464 377L1459 376z"/>
<path style="fill:#98e8f3; stroke:none;" d="M1464 376L1464 377L1467 377L1464 376M1585 376L1585 377L1588 377L1585 376z"/>
<path style="fill:#5d87a7; stroke:none;" d="M1588 376L1588 377L1592 377L1588 376z"/>
<path style="fill:#98e8f3; stroke:none;" d="M1743 376L1744 377L1743 376z"/>
<path style="fill:#5d87a7; stroke:none;" d="M1259 377L1259 378L1264 378L1259 377M1450 377L1450 378L1454 378L1450 377z"/>
<path style="fill:#98e8f3; stroke:none;" d="M1454.67 377.333L1455.33 377.667L1454.67 377.333M1596.67 377.333L1597.33 377.667L1596.67 377.333z"/>
<path style="fill:#5d87a7; stroke:none;" d="M1598 377L1598 378L1601 378L1598 377z"/>
<path style="fill:#98e8f3; stroke:none;" d="M1742 377L1743 378L1742 377z"/>
<path style="fill:#5d87a7; stroke:none;" d="M1267 378L1267 379L1273 379L1267 378M1443 378L1443 379L1446 379L1443 378z"/>
<path style="fill:#98e8f3; stroke:none;" d="M1446.67 378.333L1447.33 378.667L1446.67 378.333M1604.67 378.333L1605.33 378.667L1604.67 378.333z"/>
<path style="fill:#5d87a7; stroke:none;" d="M1606 378L1606 379L1609 379L1606 378M1276 379L1276 380L1281 380L1276 379M1436.67 379.333L1437.33 379.667L1436.67 379.333z"/>
<path style="fill:#98e8f3; stroke:none;" d="M1438.67 379.333L1439.33 379.667L1438.67 379.333M1611.67 379.333L1612.33 379.667L1611.67 379.333z"/>
<path style="fill:#5d87a7; stroke:none;" d="M1613.67 379.333L1614.33 379.667L1613.67 379.333M1739 379L1740 380L1739 379M1285 380L1285 381L1290 381L1285 380M1430.67 380.333L1431.33 380.667L1430.67 380.333z"/>
<path style="fill:#98e8f3; stroke:none;" d="M1432.67 380.333L1433.33 380.667L1432.67 380.333M1617.67 380.333L1618.33 380.667L1617.67 380.333z"/>
<path style="fill:#5d87a7; stroke:none;" d="M1619.67 380.333L1620.33 380.667L1619.67 380.333M1738 380L1739 381L1738 380M1293 381L1293 382L1299 382L1293 381M1424.67 381.333L1425.33 381.667L1424.67 381.333z"/>
<path style="fill:#98e8f3; stroke:none;" d="M1426 381L1427 382L1426 381M1623 381L1624 382L1623 381z"/>
<path style="fill:#5d87a7; stroke:none;" d="M1624.67 381.333L1625.33 381.667L1624.67 381.333M1737 381L1738 382L1737 381M1302 382L1302 383L1307 383L1302 382M1419.67 382.333L1420.33 382.667L1419.67 382.333z"/>
<path style="fill:#98e8f3; stroke:none;" d="M1421 382L1422 383L1421 382M1628 382L1629 383L1628 382z"/>
<path style="fill:#5d87a7; stroke:none;" d="M1629.67 382.333L1630.33 382.667L1629.67 382.333z"/>
<path style="fill:#98e8f3; stroke:none;" d="M1736 382L1737 383L1736 382z"/>
<path style="fill:#5d87a7; stroke:none;" d="M1311 383L1311 384L1316 384L1311 383M1416.67 383.333L1417.33 383.667L1416.67 383.333z"/>
<path style="fill:#98e8f3; stroke:none;" d="M1633 383L1634 384L1633 383z"/>
<path style="fill:#5d87a7; stroke:none;" d="M1634.67 383.333L1635.33 383.667L1634.67 383.333z"/>
<path style="fill:#98e8f3; stroke:none;" d="M1735 383L1736 384L1735 383z"/>
<path style="fill:#5d87a7; stroke:none;" d="M1320 384L1320 385L1325 385L1320 384M1414 384L1415 385L1414 384z"/>
<path style="fill:#98e8f3; stroke:none;" d="M1415 384L1416 385L1415 384M1637.67 384.333L1638.33 384.667L1637.67 384.333z"/>
<path style="fill:#5d87a7; stroke:none;" d="M1639 384L1640 385L1639 384z"/>
<path style="fill:#98e8f3; stroke:none;" d="M1734 384L1735 385L1734 384z"/>
<path style="fill:#5d87a7; stroke:none;" d="M1328 385L1328 386L1333 386L1328 385M1412 385L1413 386L1412 385z"/>
<path style="fill:#98e8f3; stroke:none;" d="M1641.67 385.333L1642.33 385.667L1641.67 385.333z"/>
<path style="fill:#5d87a7; stroke:none;" d="M1643 385L1644 386L1643 385M1732 385L1733 386L1732 385M1337 386L1337 387L1342 387L1337 386M1410 386L1411 387L1410 386z"/>
<path style="fill:#98e8f3; stroke:none;" d="M1646 386L1647 387L1646 386z"/>
<path style="fill:#5d87a7; stroke:none;" d="M1647 386L1648 387L1647 386M1731 386L1732 387L1731 386M1346 387L1346 388L1351 388L1346 387M1408 387L1409 388L1408 387z"/>
<path style="fill:#98e8f3; stroke:none;" d="M1650 387L1651 388L1650 387z"/>
<path style="fill:#5d87a7; stroke:none;" d="M1651 387L1652 388L1651 387M1730 387L1731 388L1730 387M1354 388L1354 389L1360 389L1354 388z"/>
<path style="fill:#98e8f3; stroke:none;" d="M1407 388L1408 389L1407 388M1654 388L1655 389L1654 388z"/>
<path style="fill:#5d87a7; stroke:none;" d="M1655 388L1656 389L1655 388M1729 388L1730 389L1729 388M1363 389L1363 390L1368 390L1363 389z"/>
<path style="fill:#98e8f3; stroke:none;" d="M1406 389L1407 390L1406 389M1657 389L1658 390L1657 389z"/>
<path style="fill:#5d87a7; stroke:none;" d="M1658.67 389.333L1659.33 389.667L1658.67 389.333z"/>
<path style="fill:#98e8f3; stroke:none;" d="M1728 389L1729 390L1728 389z"/>
<path style="fill:#5d87a7; stroke:none;" d="M1372 390L1372 391L1377 391L1372 390z"/>
<path style="fill:#98e8f3; stroke:none;" d="M1661 390L1662 391L1661 390z"/>
<path style="fill:#5d87a7; stroke:none;" d="M1662.67 390.333L1663.33 390.667L1662.67 390.333z"/>
<path style="fill:#98e8f3; stroke:none;" d="M1727 390L1728 391L1727 390z"/>
<path style="fill:#5d87a7; stroke:none;" d="M1380 391L1380 392L1386 392L1380 391z"/>
<path style="fill:#98e8f3; stroke:none;" d="M1404 391L1405 392L1404 391M1665 391L1666 392L1665 391z"/>
<path style="fill:#5d87a7; stroke:none;" d="M1666 391L1667 392L1666 391M1390 392L1390 393L1394 393L1390 392M1403 392L1404 393L1403 392M1669.67 392.333L1670.33 392.667L1669.67 392.333M1724 392L1725 393L1724 392z"/>
<path style="fill:#98e8f3; stroke:none;" d="M1672 393L1673 394L1672 393z"/>
<path style="fill:#5d87a7; stroke:none;" d="M1673.67 393.333L1674.33 393.667L1673.67 393.333M1723 393L1724 394L1723 393z"/>
<path style="fill:#98e8f3; stroke:none;" d="M1676 394L1677 395L1676 394z"/>
<path style="fill:#5d87a7; stroke:none;" d="M1677 394L1678 395L1677 394M1722 394L1723 395L1722 394z"/>
<path style="fill:#98e8f3; stroke:none;" d="M1679 395L1680 396L1679 395z"/>
<path style="fill:#5d87a7; stroke:none;" d="M1680.67 395.333L1681.33 395.667L1680.67 395.333z"/>
<path style="fill:#98e8f3; stroke:none;" d="M1721 395L1722 396L1721 395z"/>
<path style="fill:#5d87a7; stroke:none;" d="M1683.67 396.333L1684.33 396.667L1683.67 396.333z"/>
<path style="fill:#98e8f3; stroke:none;" d="M1720 396L1721 397L1720 396M1686 397L1687 398L1686 397z"/>
<path style="fill:#5d87a7; stroke:none;" d="M1687 397L1688 398L1687 397z"/>
<path style="fill:#98e8f3; stroke:none;" d="M1719 397L1720 398L1719 397M1689 398L1690 399L1689 398z"/>
<path style="fill:#5d87a7; stroke:none;" d="M1690.67 398.333L1691.33 398.667L1690.67 398.333M1717 398L1718 399L1717 398M1693.67 399.333L1694.33 399.667L1693.67 399.333M1716 399L1717 400L1716 399z"/>
<path style="fill:#98e8f3; stroke:none;" d="M1696 400L1697 401L1696 400z"/>
<path style="fill:#5d87a7; stroke:none;" d="M1697 400L1698 401L1697 400z"/>
<path style="fill:#98e8f3; stroke:none;" d="M1715 400L1716 401L1715 400M1699 401L1700 402L1699 401z"/>
<path style="fill:#5d87a7; stroke:none;" d="M1700 401L1701 402L1700 401M1713 401L1714 402L1713 401z"/>
<path style="fill:#98e8f3; stroke:none;" d="M1702 402L1703 403L1702 402z"/>
<path style="fill:#5d87a7; stroke:none;" d="M1703 402L1703 403L1706 403L1703 402M1708 402L1708 403L1711 403L1708 402z"/>
<path style="fill:#98e8f3; stroke:none;" d="M1711 402L1712 403L1711 402z"/>
<path style="fill:#37e5f5; stroke:none;" d="M1747 465C1732.68 507.314 1696.46 541.068 1689.44 586C1681.08 639.502 1741.78 684.506 1785.96 645.561C1832.39 604.635 1790.63 544.983 1767.42 505C1760.48 493.037 1755.92 475.113 1747 465z"/>
<path style="fill:#98e8f3; stroke:none;" d="M1748 465L1749 466L1748 465M1746 466L1747 467L1746 466M1749 468L1750 469L1749 468M1745 469L1746 470L1745 469M1750 471L1751 472L1750 471M1751 473L1752 474L1751 473M1743 474L1744 475L1743 474M1752 476L1753 477L1752 476M1753 478L1754 479L1753 478M1741 479L1742 480L1741 479M1754 480L1755 481L1754 480M1740 481L1741 482L1740 481M1739 483L1740 484L1739 483M1738 485L1739 486L1738 485M1737 487L1738 488L1737 487M1736 489L1737 490L1736 489M1735 491L1736 492L1735 491M1734 493L1735 494L1734 493M1761 494L1762 495L1761 494M1733 495L1734 496L1733 495M1762 496L1763 497L1762 496M1763 498L1764 499L1763 498M1730 500L1731 501L1730 500M1729 502L1730 503L1729 502M1766 503L1767 504L1766 503M1767 505L1768 506L1767 505M1726 507L1727 508L1726 507M1769 508L1770 509L1769 508M1770 510L1771 511L1770 510M1723 512L1724 513L1723 512M1772 513L1773 514L1772 513M1773 515L1774 516L1773 515M1720 517L1721 518L1720 517M1775 518L1776 519L1775 518M1718 520L1719 521L1718 520M1717 522L1718 523L1717 522M1778 523L1779 524L1778 523M1715 525L1716 526L1715 525M1780 526L1781 527L1780 526M1714 527L1715 528L1714 527M1781 528L1782 529L1781 528M1712 530L1713 531L1712 530M1711 532L1712 533L1711 532M1784 533L1785 534L1784 533M1785 535L1786 536L1785 535M1708 537L1709 538L1708 537M1787 538L1788 539L1787 538M1707 539L1708 540L1707 539M1788 540L1789 541L1788 540M1706 541L1707 542L1706 541M1789 542L1790 543L1789 542M1790 544L1791 545L1790 544M1703 546L1704 547L1703 546M1702 548L1703 549L1702 548M1701 550L1702 551L1701 550M1700 552L1701 553L1700 552M1699 554L1700 555L1699 554M1796 556L1797 557L1796 556M1797 558L1798 559L1797 558M1697 559L1698 560L1697 559M1174.67 560.333L1175.33 560.667L1174.67 560.333M1446 560L1447 561L1446 560M1798 560L1799 561L1798 560z"/>
<path style="fill:#5d87a7; stroke:none;" d="M1172 561L1173 562L1172 561z"/>
<path style="fill:#175583; stroke:none;" d="M1165 599L1456 599C1456 588.634 1460.19 567.875 1449 562.179C1444.04 559.656 1436.41 561 1431 561L1389 561L1238 561L1192 561C1186.11 561 1177.39 559.411 1172.02 562.179C1160.85 567.933 1165 588.663 1165 599z"/>
<path style="fill:#5d87a7; stroke:none;" d="M1448 561L1449 562L1448 561z"/>
<path style="fill:#98e8f3; stroke:none;" d="M1696 561L1697 562L1696 561M1170 562L1171 563L1170 562z"/>
<path style="fill:#5d87a7; stroke:none;" d="M1450 562L1451 563L1450 562M1169 563L1170 564L1169 563M1451 563L1452 564L1451 563z"/>
<path style="fill:#98e8f3; stroke:none;" d="M1799 563L1800 564L1799 563z"/>
<path style="fill:#5d87a7; stroke:none;" d="M1168 564L1169 565L1168 564M1452 564L1453 565L1452 564M1167 565L1168 566L1167 565M1453 565L1454 566L1453 565z"/>
<path style="fill:#98e8f3; stroke:none;" d="M1800 565L1801 566L1800 565M1166 566L1167 567L1166 566M1454 566L1455 567L1454 566M1694 566L1695 567L1694 566z"/>
<path style="fill:#5d87a7; stroke:none;" d="M1166 567L1167 568L1166 567z"/>
<path style="fill:#98e8f3; stroke:none;" d="M1165 568L1166 569L1165 568M1455 568L1456 569L1455 568M1801 568L1802 569L1801 568z"/>
<path style="fill:#5d87a7; stroke:none;" d="M1165 569L1166 570L1165 569M1455 569L1456 570L1455 569z"/>
<path style="fill:#98e8f3; stroke:none;" d="M1693 569L1694 570L1693 569M1802 571L1803 572L1802 571M1456 572L1456 599L1457 599L1456 572M1692 572L1693 573L1692 572M1803 574L1804 575L1803 574M1691.33 575.667L1691.67 576.333L1691.33 575.667M1804 578L1805 579L1804 578M1690.33 579.667L1690.67 580.333L1690.33 579.667M1805.33 582.667L1805.67 583.333L1805.33 582.667M1689.33 584.667L1689.67 585.333L1689.33 584.667M1806 589L1806 592L1807 592L1806 589M1688 592L1688 602L1689 602L1688 592M1135 599L1136 600L1135 599z"/>
<path style="fill:#5d87a7; stroke:none;" d="M1136 599L1136 600L1486 600L1455 599L1383 599L1136 599z"/>
<path style="fill:#98e8f3; stroke:none;" d="M1486 599L1487 600L1486 599M1132 600L1133 601L1132 600z"/>
<path style="fill:#175583; stroke:none;" d="M1133 600.742C1119.42 606.002 1125 636.405 1125 648L1125 774C1125 785.504 1120.23 810.604 1130.05 818.581C1136.58 823.88 1147.17 822 1155 822L1214 822L1410 822L1464 822C1471.78 822 1481.79 823.656 1488.96 820.08C1501.42 813.872 1496 784.682 1496 773L1496 645C1496 633.795 1500.81 608.702 1489.98 601.742C1483.81 597.777 1472.08 600 1465 600L1403 600L1213 600L1158 600C1150.62 600 1139.95 598.054 1133 600.742z"/>
<path style="fill:#5d87a7; stroke:none;" d="M1488 600L1489 601L1488 600z"/>
<path style="fill:#98e8f3; stroke:none;" d="M1130 601L1131 602L1130 601M1490 601L1491 602L1490 601z"/>
<path style="fill:#5d87a7; stroke:none;" d="M1129 602L1130 603L1129 602M1491 602L1492 603L1491 602z"/>
<path style="fill:#98e8f3; stroke:none;" d="M1806 602L1806 605L1807 605L1806 602z"/>
<path style="fill:#5d87a7; stroke:none;" d="M1128 603L1129 604L1128 603M1492 603L1493 604L1492 603M1127 604L1128 605L1127 604M1493 604L1494 605L1493 604z"/>
<path style="fill:#98e8f3; stroke:none;" d="M1126 605L1127 606L1126 605M1494 605L1495 606L1494 605z"/>
<path style="fill:#5d87a7; stroke:none;" d="M1126 606L1127 607L1126 606z"/>
<path style="fill:#98e8f3; stroke:none;" d="M1125 607L1126 608L1125 607M1495 607L1496 608L1495 607M1689 607L1689 610L1690 610L1689 607z"/>
<path style="fill:#5d87a7; stroke:none;" d="M1125 608L1126 609L1125 608M1495 608L1496 609L1495 608z"/>
<path style="fill:#98e8f3; stroke:none;" d="M1805 610L1806 611L1805 610M1496 611L1496 811L1497 811L1497 670L1497 630L1496 611M1124 612L1124 810L1125 810L1125 671L1125 631L1124 612M1690.33 612.667L1690.67 613.333L1690.33 612.667M1804 614L1805 615L1804 614M1691 616L1692 617L1691 616M1803 617L1804 618L1803 617M1692 619L1693 620L1692 619M1802 620L1803 621L1802 620M1693 622L1694 623L1693 622M1801 623L1802 624L1801 623M1694 624L1695 625L1694 624M1800 625L1801 626L1800 625M1799 627L1800 628L1799 627M1696 628L1697 629L1696 628M1798 629L1799 630L1798 629M1697 630L1698 631L1697 630z"/>
<path style="fill:#5d87a7; stroke:none;" d="M1177 632L1177 789L1188 789L1188 632L1177 632M1241 632L1241 789L1252 789L1252 632L1241 632M1305 632L1305 789L1316 789L1316 632L1305 632M1369 632L1369 789L1380 789L1380 632L1369 632M1433 632L1433 789L1444 789L1444 632L1433 632z"/>
<path style="fill:#98e8f3; stroke:none;" d="M1698 632L1699 633L1698 632M1795 634L1796 635L1795 634M1794 635L1795 636L1794 635M1701 636L1702 637L1701 636M1792 638L1793 639L1792 638M1791 639L1792 640L1791 639M1704 640L1705 641L1704 640M1790 640L1791 641L1790 640M1705 641L1706 642L1705 641M1706 642L1707 643L1706 642M1707 643L1708 644L1707 643M1708 644L1709 645L1708 644M1709 645L1710 646L1709 645M1710 646L1711 647L1710 646M1784 646L1785 647L1784 646M1783 647L1784 648L1783 647M1714 649L1715 650L1714 649M1779 650L1780 651L1779 650M1717 651L1718 652L1717 651M1776 652L1777 653L1776 652M1720 653L1721 654L1720 653M1774 653L1775 654L1774 653M1722 654L1723 655L1722 654M1772 654L1773 655L1772 654M1724 655L1725 656L1724 655M1770 655L1771 656L1770 655M1768 656L1769 657L1768 656M1729 657L1730 658L1729 657M1765 657L1766 658L1765 657M1732.67 658.333L1733.33 658.667L1732.67 658.333M1762 658L1763 659L1762 658M1736.67 659.333L1737.33 659.667L1736.67 659.333M1757.67 659.333L1758.33 659.667L1757.67 659.333M1743 660L1743 661L1752 661L1743 660z"/>
<path style="fill:#5d87a7; stroke:none;" d="M1125 812L1126 813L1125 812M1495.33 812.667L1495.67 813.333L1495.33 812.667z"/>
<path style="fill:#98e8f3; stroke:none;" d="M1125 813L1126 814L1125 813M1126 815L1127 816L1126 815z"/>
<path style="fill:#5d87a7; stroke:none;" d="M1494 815L1495 816L1494 815M1127 816L1128 817L1127 816M1493 816L1494 817L1493 816M1128 817L1129 818L1128 817M1129 818L1130 819L1129 818M1130 819L1131 820L1130 819M1490 819L1491 820L1490 819z"/>
<path style="fill:#98e8f3; stroke:none;" d="M1131 820L1132 821L1131 820z"/>
<path style="fill:#5d87a7; stroke:none;" d="M1132 820L1133 821L1132 820M1488 820L1489 821L1488 820z"/>
<path style="fill:#98e8f3; stroke:none;" d="M1489 820L1490 821L1489 820z"/>
<path style="fill:#5d87a7; stroke:none;" d="M1134.67 821.333L1135.33 821.667L1134.67 821.333M1485.67 821.333L1486.33 821.667L1485.67 821.333z"/>
<path style="fill:#98e8f3; stroke:none;" d="M1487 821L1488 822L1487 821M1142 822C1143.45 828.097 1146.13 848.658 1141.4 853.397C1139.1 855.69 1134.93 854.885 1132 855.17C1124.59 855.89 1117.15 857.682 1110 859.71C1084.82 866.857 1061.37 876.478 1038 888.248C959.646 927.703 900.926 1001.23 876.424 1085C860.481 1139.51 860 1194.74 860 1251L860 1402L860 1963L860 2185C860 2221.35 853.803 2263.83 868.427 2298C900.844 2373.74 995.838 2356 1062 2356L1582 2356C1639.65 2356 1708.14 2367.63 1745 2312C1750.71 2303.38 1754.77 2293.94 1757.57 2284C1762.17 2267.72 1761 2250.72 1761 2234L1761 2159L1761 1907L1761 1394L1761 1250C1761 1198.53 1760.71 1148.28 1748.13 1098C1726.21 1010.47 1668.58 934.458 1589 891.309C1565.1 878.353 1540.23 867.717 1514 860.424C1506.15 858.241 1498.1 856.282 1490 855.286C1486.86 854.901 1482.05 855.846 1479.6 853.397C1474.86 848.658 1477.55 828.097 1479 822L1142 822z"/>
<path style="fill:#37e5f5; stroke:none;" d="M913 1267L913 1993L913 2193L913 2244C913 2255.86 912.545 2268.2 918.324 2279C930.458 2301.68 952.253 2303 975 2303L1088 2303L1545 2303L1648 2303C1667.72 2303 1687.37 2302.17 1699.64 2284C1714.56 2261.92 1708 2226.44 1708 2201L1708 2007L1708 1267L913 1267z"/>
<path style="fill:#98e8f3; stroke:none;" d="M1076 1544L1076 1545L1079 1545L1076 1544z"/>
<path style="fill:#ffffff; stroke:none;" d="M1079 1544.43C1073.35 1545.24 1068.14 1546.76 1063 1549.26C1029.65 1565.51 1035 1602.03 1035 1633L1035 1896C1035 1927.12 1025.98 1974.29 1047.01 1999.96C1061.94 2018.17 1082.53 2018 1104 2018L1172 2018L1423 2018L1503 2018C1516.95 2018 1532.3 2019.79 1546 2017C1591.72 2007.68 1586 1960.54 1586 1925L1586 1661C1586 1630.16 1595.12 1583.39 1571.71 1559.17C1556.84 1543.79 1537.78 1544 1518 1544L1445 1544L1200 1544L1121 1544C1107.3 1544 1092.57 1542.48 1079 1544.43z"/>
<path style="fill:#98e8f3; stroke:none;" d="M1542.67 1544.33L1543.33 1544.67L1542.67 1544.33M1072 1545L1073 1546L1072 1545M1547.67 1545.33L1548.33 1545.67L1547.67 1545.33M1069 1546L1070 1547L1069 1546M1551 1546L1552 1547L1551 1546M1066 1547L1067 1548L1066 1547M1554 1547L1555 1548L1554 1547M1064 1548L1065 1549L1064 1548M1556 1548L1557 1549L1556 1548M1062 1549L1063 1550L1062 1549M1558 1549L1559 1550L1558 1549M1060 1550L1061 1551L1060 1550M1560 1550L1561 1551L1560 1550M1058 1551L1059 1552L1058 1551M1563 1552L1564 1553L1563 1552M1055 1553L1056 1554L1055 1553M1054 1554L1055 1555L1054 1554M1566 1554L1567 1555L1566 1554M1567 1555L1568 1556L1567 1555M1568 1556L1569 1557L1568 1556M1573 1561L1574 1562L1573 1561M1574 1562L1575 1563L1574 1562M1045 1563L1046 1564L1045 1563M1044 1564L1045 1565L1044 1564M1577 1566L1578 1567L1577 1566M1042 1567L1043 1568L1042 1567M1041 1569L1042 1570L1041 1569M1580 1571L1581 1572L1580 1571M1581 1573L1582 1574L1581 1573M1038 1575L1039 1576L1038 1575M1582 1576L1583 1577L1582 1576M1583 1579L1584 1580L1583 1579M1036 1581L1037 1582L1036 1581M1584 1582L1585 1583L1584 1582M1035.33 1585.67L1035.67 1586.33L1035.33 1585.67M1585.33 1587.67L1585.67 1588.33L1585.33 1587.67M1034 1594L1034 1616L1035 1616L1034 1594z"/>
<path style="fill:#5d87a7; stroke:none;" d="M1266 1617L1266 1737L1267 1737L1267 1653L1266 1617z"/>
<path style="fill:#175583; stroke:none;" d="M1267 1617L1267 1737L1147 1737L1147 1825L1267 1825L1267 1945L1354 1945L1354 1857C1354 1850.41 1350.77 1831.44 1355.6 1826.6C1360.44 1821.77 1379.41 1825 1386 1825L1474 1825L1474 1737L1386 1737C1379.41 1737 1360.44 1740.23 1355.6 1735.4C1350.77 1730.56 1354 1711.59 1354 1705L1354 1617L1267 1617z"/>
<path style="fill:#5d87a7; stroke:none;" d="M1354 1617L1354 1736L1355 1736L1355 1653L1354 1617z"/>
<path style="fill:#98e8f3; stroke:none;" d="M1147 1736L1147 1737L1266 1737L1230 1736L1147 1736M1355 1736L1355 1737L1474 1737L1438 1736L1355 1736M1146 1737L1146 1825L1147 1825L1147 1764L1146 1737z"/>
<path style="fill:#5d87a7; stroke:none;" d="M1474 1737L1474 1825L1475 1825L1475 1764L1474 1737z"/>
<path style="fill:#98e8f3; stroke:none;" d="M1147 1825L1147 1826L1266 1826L1230 1825L1147 1825z"/>
<path style="fill:#5d87a7; stroke:none;" d="M1266 1825L1266 1945L1267 1945L1267 1861L1266 1825z"/>
<path style="fill:#98e8f3; stroke:none;" d="M1355 1825L1355 1826L1474 1826L1438 1825L1355 1825z"/>
<path style="fill:#5d87a7; stroke:none;" d="M1354 1826L1354 1945L1355 1945L1355 1862L1354 1826z"/>
<path style="fill:#98e8f3; stroke:none;" d="M1586 1858L1586 1970L1587 1970L1587 1892L1586 1858M1035 1971L1035 1974L1036 1974L1035 1971M1585.33 1976.67L1585.67 1977.33L1585.33 1976.67M1036.33 1978.67L1036.67 1979.33L1036.33 1978.67M1584 1981L1585 1982L1584 1981M1037 1982L1038 1983L1037 1982M1583 1984L1584 1985L1583 1984M1038 1985L1039 1986L1038 1985M1581 1989L1582 1990L1581 1989M1580 1991L1581 1992L1580 1991M1042 1993L1043 1994L1042 1993M1578 1994L1579 1995L1578 1994M1043 1995L1044 1996L1043 1995M1044 1996L1045 1997L1044 1996M1576 1997L1577 1998L1576 1997M1046 1999L1047 2000L1046 1999M1047 2000L1048 2001L1047 2000M1048 2001L1049 2002L1048 2001M1572 2002L1573 2003L1572 2002M1571 2003L1572 2004L1571 2003M1051 2004L1052 2005L1051 2004M1570 2004L1571 2005L1570 2004M1052 2005L1053 2006L1052 2005M1053 2006L1054 2007L1053 2006M1565 2008L1566 2009L1565 2008M1057 2009L1058 2010L1057 2009M1562 2010L1563 2011L1562 2010M1060 2011L1061 2012L1060 2011M1062 2012L1063 2013L1062 2012M1064 2013L1065 2014L1064 2013M1066 2014L1067 2015L1066 2014M1554 2014L1555 2015L1554 2014M1069 2015L1070 2016L1069 2015M1552 2015L1553 2016L1552 2015M1072.67 2016.33L1073.33 2016.67L1072.67 2016.33M1548 2016L1549 2017L1548 2016M1077.67 2017.33L1078.33 2017.67L1077.67 2017.33M1543.67 2017.33L1544.33 2017.67L1543.67 2017.33z"/>
</svg>
